<svg xmlns="http://www.w3.org/2000/svg" width="1080" height="720" viewBox="0 0 1080 720">
<rect width="1080" height="720" fill="white"/>
<style>text{font-family:Arial,sans-serif;fill:#111}.t{font-size:21px;font-weight:bold}.s{font-size:17px}.sm{font-size:14px}.box{fill:#f4f7fa;stroke:#324a5f;stroke-width:2}.good{fill:#e9f7ef}.bad{fill:#fcebea}.axis{stroke:#333;stroke-width:2}.line1{fill:none;stroke:#1f77b4;stroke-width:4}.line2{fill:none;stroke:#d95f02;stroke-width:4;stroke-dasharray:8 6}.line3{fill:none;stroke:#7570b3;stroke-width:4;stroke-dasharray:3 5}</style>
<text x="25" y="35" class="t">a  Beyond Hilbert-space dimension witnesses</text>
<g transform="translate(25,55)">
 <rect x="0" y="20" width="195" height="88" rx="8" class="box"/><text x="98" y="54" text-anchor="middle" class="s">black-box</text><text x="98" y="78" text-anchor="middle" class="s">probabilities</text>
 <rect x="260" y="20" width="195" height="88" rx="8" class="box"/><text x="358" y="54" text-anchor="middle" class="s">response</text><text x="358" y="78" text-anchor="middle" class="s">Jacobians</text>
 <rect x="520" y="20" width="195" height="88" rx="8" class="box"/><text x="618" y="54" text-anchor="middle" class="s">three-obstruction</text><text x="618" y="78" text-anchor="middle" class="s">audit</text>
 <rect x="780" y="20" width="245" height="88" rx="8" class="box"/><text x="903" y="54" text-anchor="middle" class="s">null-sheet causal</text><text x="903" y="78" text-anchor="middle" class="s">spectroscopy</text>
 <path d="M195 64 H255 M455 64 H515 M715 64 H775" stroke="#333" stroke-width="2" marker-end="url(#a)"/>
 <text x="512" y="145" text-anchor="middle" class="s">blind output: response-tangent rank + quadratic inertia</text>
</g>
<defs><marker id="a" markerWidth="8" markerHeight="8" refX="7" refY="4" orient="auto"><path d="M0,0 L8,4 L0,8 Z" fill="#333"/></marker></defs>
<text x="25" y="245" class="t">b  One audit localizes four failures</text>
<g transform="translate(25,265)">
 <text x="160" y="-7" class="sm">universality</text><text x="335" y="-7" class="sm">completeness</text><text x="505" y="-7" class="sm">derivative depth</text><text x="690" y="-7" class="sm">orbit depth</text>
 <g class="sm"><text x="-5" y="42">positive</text><text x="-5" y="91">multiplicity</text><text x="-5" y="140">kernel mismatch</text><text x="-5" y="189">hidden growth</text></g>
 <g transform="translate(120,10)">
  <rect x="0" y="0" width="680" height="196" fill="#fff" stroke="#aaa"/>
  <rect x="0" y="0" width="680" height="49" class="good"/><rect x="0" y="49" width="170" height="49" class="bad"/><rect x="170" y="98" width="170" height="49" class="bad"/><rect x="170" y="147" width="510" height="49" class="bad"/>
  <path d="M170 0V196 M340 0V196 M510 0V196 M0 49H680 M0 98H680 M0 147H680" stroke="#aaa"/>
  <g class="s" text-anchor="middle"><text x="85" y="32">0</text><text x="255" y="32">0</text><text x="425" y="32">0</text><text x="595" y="32">0</text><text x="85" y="81">0.71</text><text x="255" y="81">0</text><text x="425" y="81">0</text><text x="595" y="81">0</text><text x="85" y="130">0</text><text x="255" y="130">1</text><text x="425" y="130">0</text><text x="595" y="130">0</text><text x="85" y="179">0</text><text x="255" y="179">1</text><text x="425" y="179">+1</text><text x="595" y="179">+1</text></g>
 </g>
</g>
<text x="25" y="510" class="t">c  Deeper protocols reveal hidden directions</text>
<g transform="translate(65,535)"><path d="M0 125H410 M0 125V0" class="axis"/><path d="M0 95 L130 95 L260 95 L390 95" class="line1"/><path d="M0 95 L130 42 L260 42 L390 42" class="line2"/><path d="M0 95 L130 95 L260 42 L390 42" class="line3"/><g class="sm"><text x="-20" y="100">3</text><text x="-20" y="47">4</text><text x="0" y="150">1</text><text x="130" y="150">2</text><text x="260" y="150">3</text><text x="390" y="150">4</text><text x="135" y="174">registered depth k</text><text x="280" y="16" fill="#1f77b4">closed</text><text x="280" y="35" fill="#d95f02">commutator</text><text x="280" y="54" fill="#7570b3">ramified</text></g></g>
<text x="565" y="510" class="t">d  Gapped collective CAD</text>
<g transform="translate(600,535)"><path d="M0 125H410 M0 125V0" class="axis"/><path d="M0 5 C80 45,160 80,390 120" class="line1"/><path d="M0 5 C65 65,145 102,390 124" class="line2"/><path d="M0 5 C50 85,130 117,390 125" class="line3"/><g class="sm"><text x="125" y="174">conversion scale</text><text x="210" y="23">larger connection gap → faster suppression</text><text x="-35" y="10">1</text><text x="-35" y="128">0</text></g></g>
</svg>
