<svg xmlns="http://www.w3.org/2000/svg" width="960" height="390" viewBox="0 0 960 390">
<rect width="960" height="390" fill="white"/>
<style>text{font-family:Arial,sans-serif;fill:#111}.t{font-size:21px;font-weight:bold}.s{font-size:15px}.axis{stroke:#333;stroke-width:2}.a{fill:none;stroke:#1f77b4;stroke-width:4}.b{fill:none;stroke:#d95f02;stroke-width:4}.c{fill:none;stroke:#2ca02c;stroke-width:4}</style>
<text x="25" y="35" class="t">a  Response-rank certification power</text>
<g transform="translate(65,65)"><path d="M0 260H360 M0 260V0" class="axis"/><path d="M15 260 L80 214 L170 5 L255 0 L345 0" class="a"/><g fill="#1f77b4"><circle cx="15" cy="260" r="5"/><circle cx="80" cy="214" r="5"/><circle cx="170" cy="5" r="5"/><circle cx="255" cy="0" r="5"/><circle cx="345" cy="0" r="5"/></g><g class="s"><text x="-35" y="265">0</text><text x="-35" y="135">0.5</text><text x="-35" y="8">1</text><text x="0" y="288">500</text><text x="142" y="288">2500</text><text x="310" y="288">10000</text><text x="100" y="320">shots per setting</text></g></g>
<text x="495" y="35" class="t">b  Null-sheet causal reconstruction</text>
<g transform="translate(545,65)"><path d="M0 260H360 M0 260V0" class="axis"/><path d="M0 260 L72 249 L180 224 L270 196 L360 160" class="b"/><path d="M0 260 L72 238 L180 183 L270 128 L360 77" class="c"/><g class="s"><text x="-45" y="265">0</text><text x="-45" y="135">0.04</text><text x="-45" y="8">0.08</text><text x="-3" y="288">0</text><text x="168" y="288">0.05</text><text x="345" y="288">0.1</text><text x="75" y="320">null-frequency noise</text><text x="225" y="40" fill="#d95f02">metric error</text><text x="225" y="64" fill="#2ca02c">null residual</text></g></g>
</svg>
